<svg viewBox="0 0 88 88" xmlns="http://www.w3.org/2000/svg">
    <rect width="88" height="88" rx="44" fill="#FFDE89"/>
    <path d="M42.166 47.666h-3.667c0-9.111 7.389-16.5 16.5-16.5v3.667c-7.095 0-12.833 5.739-12.833 12.834zm12.833-5.5V38.5c-5.06 0-9.166 4.106-9.166 9.166h3.666c0-3.043 2.457-5.5 5.5-5.5zM34.833 29.334a3.654 3.654 0 00-3.667-3.666 3.654 3.654 0 00-3.667 3.666A3.654 3.654 0 0031.166 33a3.654 3.654 0 003.667-3.667zm8.158.917h-3.667a5.481 5.481 0 01-5.408 4.583h-5.5a2.746 2.746 0 00-2.75 2.75v4.584h11v-4.144c3.41-1.082 5.958-4.088 6.325-7.773zm13.842 22.916a3.654 3.654 0 003.666-3.666 3.654 3.654 0 00-3.666-3.667 3.654 3.654 0 00-3.667 3.667 3.654 3.654 0 003.667 3.666zM59.583 55h-5.5a5.48 5.48 0 01-5.409-4.584h-3.666c.366 3.686 2.915 6.692 6.325 7.774v4.143h11V57.75a2.746 2.746 0 00-2.75-2.75z"
          fill="#1D2360"/>
</svg>
