<svg width="20" height="10" viewBox="0 0 20 10" fill="none" xmlns="http://www.w3.org/2000/svg">
    <path d="M10.5416 3.33333C9.85831 1.39167 8.00831 0 5.83331 0C3.07498 0 0.833313 2.24167 0.833313 5C0.833313 7.75833 3.07498 10 5.83331 10C8.00831 10 9.85831 8.60833 10.5416 6.66667H14.1666V10H17.5V6.66667H19.1666V3.33333H10.5416ZM5.83331 6.66667C4.91665 6.66667 4.16665 5.91667 4.16665 5C4.16665 4.08333 4.91665 3.33333 5.83331 3.33333C6.74998 3.33333 7.49998 4.08333 7.49998 5C7.49998 5.91667 6.74998 6.66667 5.83331 6.66667Z"
          fill="white"/>
</svg>
